<?xml version="1.0" encoding="UTF-8"?>
<svg viewBox="0 0 38 48" version="1.1" xmlns="http://www.w3.org/2000/svg" xmlns:xlink="http://www.w3.org/1999/xlink">
    <!-- Generator: Sketch 49.2 (51160) - http://www.bohemiancoding.com/sketch -->
    <title>Pinterest</title>
    <desc>Created with Sketch.</desc>
    <defs></defs>
    <g id="Page-1" stroke="none" stroke-width="1" fill="none" fill-rule="evenodd">
        <g id="Social-Icons---Isolated" transform="translate(-505.000000, -167.000000)" fill="#CC2127">
            <path d="M527.242381,201.690914 C524.271428,201.690914 521.476704,200.079963 520.519137,198.253385 C520.519137,198.253385 518.920593,204.605001 518.583729,205.831574 C517.393788,210.164422 513.887907,214.500396 513.614985,214.853524 C513.426279,215.101963 513.006758,215.023838 512.963091,214.698835 C512.886672,214.145705 511.993047,208.678472 513.044187,204.21906 C513.571317,201.979979 516.584378,189.195497 516.584378,189.195497 C516.584378,189.195497 515.704789,187.434545 515.704789,184.832961 C515.704789,180.74699 518.069075,177.696964 521.013516,177.696964 C523.515043,177.696964 524.725258,179.579792 524.725258,181.836061 C524.725258,184.357957 523.122035,188.125176 522.293911,191.620518 C521.606147,194.545542 523.761453,196.929937 526.637273,196.929937 C531.850868,196.929937 535.362987,190.220506 535.362987,182.27044 C535.362987,176.229764 531.303464,171.706289 523.91273,171.706289 C515.567548,171.706289 510.363311,177.942279 510.363311,184.911087 C510.363311,187.311107 511.07135,189.007996 512.180194,190.317382 C512.690168,190.920512 512.760348,191.162701 512.576321,191.853332 C512.442199,192.361149 512.141205,193.583034 512.014881,194.067413 C511.830853,194.765856 511.266294,195.015858 510.636234,194.756481 C506.795048,193.186156 505,188.965808 505,184.223581 C505,176.392266 511.59536,167 524.669114,167 C535.17584,167 542.090909,174.615688 542.090909,182.793882 C542.090909,193.611159 536.089739,201.690914 527.242381,201.690914" id="Pinterest"></path>
        </g>
    </g>
</svg>